<svg xmlns="http://www.w3.org/2000/svg" width="32" height="32" viewBox="0 0 32 32"><g transform="translate(-150 -39)"><rect width="32" height="32" transform="translate(150 39)" fill="none"/><path d="M30.667,14.667H17.333V1.333A1.333,1.333,0,0,0,16,0h0a1.333,1.333,0,0,0-1.333,1.333V14.667H1.333A1.333,1.333,0,0,0,0,16H0a1.333,1.333,0,0,0,1.333,1.333H14.667V30.667A1.333,1.333,0,0,0,16,32h0a1.333,1.333,0,0,0,1.333-1.333V17.333H30.667A1.333,1.333,0,0,0,32,16h0A1.333,1.333,0,0,0,30.667,14.667Z" transform="translate(150 39)"/></g></svg>