<svg xmlns="http://www.w3.org/2000/svg" width="32" height="32" viewBox="0 0 32 32"><g transform="translate(-150 -599)"><rect width="32" height="32" transform="translate(150 599)" fill="none"/><path d="M16,32A16,16,0,1,1,32,16,16,16,0,0,1,16,32ZM9.633,19.9h1.788l-2.74-7.891H6.74L4,19.9H5.657l.607-1.881H9.037Zm4.8-7.892H12.782v5.168c0,1.75,1.285,2.926,3.3,2.926s3.309-1.176,3.309-2.926V12.005H17.742v5a1.511,1.511,0,0,1-1.657,1.63A1.51,1.51,0,0,1,14.433,17v-5ZM21.32,12v7.9h3.106c2.363,0,3.7-1.438,3.7-4,0-2.472-1.356-3.894-3.7-3.894H21.32Zm1.651,1.411v5.075h1.192c1.46,0,2.28-.9,2.28-2.565a2.194,2.194,0,0,0-2.28-2.51H22.971Zm-15.362.235-.99,3.095H8.686l-.979-3.1h-.1Z" transform="translate(150 599)"/></g></svg>