<svg xmlns="http://www.w3.org/2000/svg" width="32" height="32" viewBox="0 0 32 32"><g transform="translate(-150 -669)"><rect width="32" height="32" transform="translate(150 669)" fill="none"/><g transform="translate(38.167 668.999)"><g transform="translate(118.833 0.001)"><path d="M135.679,23.362,128.957,16l6.722-7.361a1.146,1.146,0,0,0-.119-1.657L127.389.262a1.146,1.146,0,0,0-1.873.884V12.232l-4.691-5.138a1.145,1.145,0,1,0-1.692,1.545l6.383,6.99v.742l-6.383,6.99a1.145,1.145,0,1,0,1.692,1.545l4.691-5.137V30.855a1.146,1.146,0,0,0,1.874.885l8.172-6.721a1.146,1.146,0,0,0,.119-1.657Zm-7.873-19.79,5.367,4.414-5.367,5.878Zm0,24.858V18.139l5.367,5.877Z" transform="translate(-118.833 -0.001)"/></g></g></g></svg>