<svg xmlns="http://www.w3.org/2000/svg" width="32.334" height="32.334" viewBox="0 0 32.334 32.334"><g transform="translate(-150 -739)"><rect width="32" height="32" transform="translate(150 739)" fill="none"/><path d="M-141.715-20.286a2.292,2.292,0,0,1,2.286-2.286,2.292,2.292,0,0,1,2.286,2.286A2.292,2.292,0,0,1-139.429-18,2.292,2.292,0,0,1-141.715-20.286Zm-9.143,0a2.292,2.292,0,0,1,2.286-2.286,2.292,2.292,0,0,1,2.286,2.286A2.292,2.292,0,0,1-148.572-18,2.292,2.292,0,0,1-150.857-20.286Zm8-9.143a3.424,3.424,0,0,1,3.429-3.429A3.424,3.424,0,0,1-136-29.429,3.424,3.424,0,0,1-139.429-26,3.424,3.424,0,0,1-142.857-29.429Zm-9.143,0a3.424,3.424,0,0,1,3.429-3.429,3.424,3.424,0,0,1,3.429,3.429A3.424,3.424,0,0,1-148.572-26,3.424,3.424,0,0,1-152-29.429Zm19.429,0a2.292,2.292,0,0,1,2.286-2.286A2.292,2.292,0,0,1-128-29.429a2.292,2.292,0,0,1-2.286,2.286A2.292,2.292,0,0,1-132.572-29.429Zm-27.429,0a2.292,2.292,0,0,1,2.286-2.286,2.292,2.292,0,0,1,2.286,2.286,2.292,2.292,0,0,1-2.286,2.286A2.292,2.292,0,0,1-160-29.429Zm17.143-9.143A3.424,3.424,0,0,1-139.429-42,3.424,3.424,0,0,1-136-38.572a3.424,3.424,0,0,1-3.429,3.429A3.424,3.424,0,0,1-142.857-38.572Zm-9.143,0A3.424,3.424,0,0,1-148.572-42a3.424,3.424,0,0,1,3.429,3.429,3.424,3.424,0,0,1-3.429,3.429A3.424,3.424,0,0,1-152-38.572Zm19.429,0a2.292,2.292,0,0,1,2.286-2.286A2.292,2.292,0,0,1-128-38.572a2.292,2.292,0,0,1-2.286,2.286A2.292,2.292,0,0,1-132.572-38.572Zm-27.429,0a2.292,2.292,0,0,1,2.286-2.286,2.292,2.292,0,0,1,2.286,2.286,2.292,2.292,0,0,1-2.286,2.286A2.292,2.292,0,0,1-160-38.572Zm18.286-9.143A2.292,2.292,0,0,1-139.429-50a2.292,2.292,0,0,1,2.286,2.286,2.292,2.292,0,0,1-2.286,2.286A2.292,2.292,0,0,1-141.715-47.715Zm-9.143,0A2.292,2.292,0,0,1-148.572-50a2.292,2.292,0,0,1,2.286,2.286,2.292,2.292,0,0,1-2.286,2.286A2.292,2.292,0,0,1-150.857-47.715Z" transform="translate(310.334 789.334)"/></g></svg>