<svg xmlns="http://www.w3.org/2000/svg" width="32" height="32" viewBox="0 0 32 32"><g transform="translate(-150 -809)"><rect width="32" height="32" transform="translate(150 809)" fill="none"/><path d="M674.666,1302.666A6.686,6.686,0,0,1,668,1296v-12h32v12a6.686,6.686,0,0,1-6.666,6.667Zm3.7-10.606a1.234,1.234,0,0,0-.368.9,1.335,1.335,0,0,0,.368.964,1.237,1.237,0,0,0,.926.381h3.4v3.4a1.258,1.258,0,0,0,.368.926,1.226,1.226,0,0,0,.9.368,1.24,1.24,0,0,0,1.318-1.294v-3.4h3.4a1.278,1.278,0,0,0,.939-.381,1.249,1.249,0,0,0,.381-.913,1.3,1.3,0,0,0-1.319-1.319h-3.4v-3.4a1.286,1.286,0,0,0-.355-.926,1.253,1.253,0,0,0-.939-.366,1.291,1.291,0,0,0-.9.366,1.223,1.223,0,0,0-.393.926v3.4h-3.4A1.264,1.264,0,0,0,678.368,1292.061ZM668,1281.667v-1.334a6.676,6.676,0,0,1,6.667-6.666H676v-1.333a1.333,1.333,0,1,1,2.667,0v1.333h10.667v-1.333a1.333,1.333,0,1,1,2.667,0v1.333h1.333a6.676,6.676,0,0,1,6.667,6.666v1.334Z" transform="translate(-518 -462)"/></g></svg>
