<svg xmlns="http://www.w3.org/2000/svg" width="32" height="32" viewBox="0 0 32 32">
  <g id="Group_132" data-name="Group 132" transform="translate(-150 -949)">
    <rect id="Rectangle_24" data-name="Rectangle 24" width="32" height="32" transform="translate(150 949)" fill="none"/>
    <rect id="Rectangle_32" data-name="Rectangle 32" width="3" height="39" rx="1.5" transform="translate(178.577 950) rotate(45)"/>
    <path id="Subtraction_9" data-name="Subtraction 9" d="M634.111,1277.467h-3.4a2.711,2.711,0,0,1-2.708-2.708v-16.049a2.712,2.712,0,0,1,2.708-2.709h15.746a2.712,2.712,0,0,1,2.71,2.709v3.7l-15.053,15.053Zm12.344,0h-8.1l10.811-10.811v8.1A2.712,2.712,0,0,1,646.455,1277.466Zm12.184-1.534a1.33,1.33,0,0,1-.86-.319l-5.906-4.92v-6.746l6.61-6.61a1.334,1.334,0,0,1,.155-.009,1.363,1.363,0,0,1,1.362,1.358v15.889A1.363,1.363,0,0,1,658.639,1275.933Z" transform="translate(-478 -301)"/>
  </g>
</svg>
