<svg xmlns="http://www.w3.org/2000/svg" width="32" height="32" viewBox="0 0 32 32">
  <g id="Group_165" data-name="Group 165" transform="translate(-150 -879)">
    <g id="Group_52" data-name="Group 52">
      <rect id="Rectangle_23" data-name="Rectangle 23" width="32" height="32" transform="translate(150 879)" fill="none"/>
      <path id="Union_4" data-name="Union 4" d="M2.708,21.466A2.707,2.707,0,0,1,0,18.758V2.709A2.708,2.708,0,0,1,2.708,0H18.455a2.709,2.709,0,0,1,2.709,2.709V18.758a2.708,2.708,0,0,1-2.709,2.708Zm27.07-1.852-5.905-4.921V6.567l5.905-4.923A1.355,1.355,0,0,1,32,2.686V18.574a1.355,1.355,0,0,1-1.361,1.358A1.335,1.335,0,0,1,29.778,19.615Z" transform="translate(150 884)"/>
    </g>
  </g>
</svg>
