<svg xmlns="http://www.w3.org/2000/svg" width="32" height="32" viewBox="0 0 32 32"><g transform="translate(-150 -1089)"><rect width="32" height="32" transform="translate(150 1089)" fill="none"/><path d="M25.333,2H13.275A6.621,6.621,0,0,0,8.013,4.575L.28,14.514a1.333,1.333,0,0,0,0,1.637l7.733,9.94a6.621,6.621,0,0,0,5.261,2.575H25.333A6.674,6.674,0,0,0,32,22V8.666A6.674,6.674,0,0,0,25.333,2ZM23.609,18.39a1.333,1.333,0,1,1-1.885,1.885l-3.057-3.057-3.057,3.057a1.333,1.333,0,1,1-1.885-1.885l3.057-3.057-3.057-3.057a1.333,1.333,0,1,1,1.885-1.885l3.057,3.057,3.057-3.057a1.333,1.333,0,1,1,1.885,1.885l-3.057,3.057Z" transform="translate(150.001 1090)"/></g></svg>