<svg xmlns="http://www.w3.org/2000/svg" width="32" height="32" viewBox="0 0 32 32"><g transform="translate(-150 -1229)"><rect width="32" height="32" transform="translate(150 1229)" fill="none"/><path d="M684,1303a16,16,0,1,1,15.974-17v10.337A6.674,6.674,0,0,1,693.3,1303Z" transform="translate(-518 -42)"/><path d="M5.458,8.329l-3.7-4.858V7.809a.874.874,0,0,1-.88.868A.874.874,0,0,1,0,7.809V.868A.869.869,0,0,1,.6.046a.885.885,0,0,1,.983.3l3.7,4.858V.868a.88.88,0,0,1,1.761,0v6.94a.869.869,0,0,1-.6.822.859.859,0,0,1-.278.045A.887.887,0,0,1,5.458,8.329Zm15.715-.246-.924-2.736-.924,2.736a.834.834,0,0,1-.87.592.878.878,0,0,1-.82-.656l-1.761-6.94A.867.867,0,0,1,16.514.027a.881.881,0,0,1,1.067.632l1.026,4.05.8-2.379a.923.923,0,0,1,1.671,0l.8,2.379L22.914.658A.876.876,0,0,1,23.981.027a.865.865,0,0,1,.641,1.051l-1.761,6.94a.876.876,0,0,1-.82.656.189.189,0,0,1-.032,0A.881.881,0,0,1,21.173,8.083ZM9.684,8.676a.874.874,0,0,1-.88-.868V.868A.874.874,0,0,1,9.684,0h3.521a.874.874,0,0,1,.88.868.874.874,0,0,1-.88.868H10.564V3.471h2.641a.868.868,0,1,1,0,1.735H10.564V6.941h2.641a.868.868,0,1,1,0,1.735Z" transform="translate(154 1241)" fill="#fff"/></g></svg>