<svg xmlns="http://www.w3.org/2000/svg" width="32" height="32" viewBox="0 0 32 32"><g transform="translate(-150 -1439)"><rect width="32" height="32" transform="translate(150 1439)" fill="#fff"/><g transform="translate(150 1415.5)"><g transform="translate(0 25.5)"><path d="M28.444,25.5H3.556A3.566,3.566,0,0,0,0,29.056V50.389a3.566,3.566,0,0,0,3.556,3.556H28.444A3.566,3.566,0,0,0,32,50.389V29.056A3.566,3.566,0,0,0,28.444,25.5ZM14.222,37.944H11.556v-.889H8v5.333h3.556V41.5h2.667v1.778a1.68,1.68,0,0,1-1.778,1.778H7.111a1.68,1.68,0,0,1-1.778-1.778V36.167a1.68,1.68,0,0,1,1.778-1.778h5.333a1.68,1.68,0,0,1,1.778,1.778Zm12.444,0H24v-.889H20.444v5.333H24V41.5h2.667v1.778a1.68,1.68,0,0,1-1.778,1.778H19.556a1.68,1.68,0,0,1-1.778-1.778V36.167a1.68,1.68,0,0,1,1.778-1.778h5.333a1.68,1.68,0,0,1,1.778,1.778Z" transform="translate(0 -25.5)"/></g></g></g></svg>