<svg xmlns="http://www.w3.org/2000/svg" width="32" height="32" viewBox="0 0 32 32"><g transform="translate(-150 -1369)"><rect width="32" height="32" transform="translate(150 1369)" fill="none"/><path d="M17.885,16,31.61,2.276A1.333,1.333,0,1,0,29.724.391L16,14.115,2.276.391A1.333,1.333,0,1,0,.391,2.276L14.115,16,.391,29.724a1.333,1.333,0,0,0,0,1.885h0a1.333,1.333,0,0,0,1.885,0L16,17.885,29.724,31.61a1.333,1.333,0,0,0,1.885,0h0a1.333,1.333,0,0,0,0-1.885Z" transform="translate(150 1369)"/></g></svg>