<svg xmlns="http://www.w3.org/2000/svg" width="32" height="32" viewBox="0 0 32 32"><g transform="translate(-150 -1579)"><rect width="32" height="32" transform="translate(150 1579)" fill="none"/><path d="M688.311,1295.261a1.041,1.041,0,0,1,.225-1.132l8.478-8.479a3.111,3.111,0,0,0,0-4.4l-8.478-8.478A1.037,1.037,0,0,1,690,1271.3l8.478,8.479a5.187,5.187,0,0,1,0,7.335L690,1295.6a1.037,1.037,0,0,1-1.692-.336ZM678,1295.6l-8.478-8.478a5.187,5.187,0,0,1,0-7.335L678,1271.3a1.037,1.037,0,0,1,1.467,1.468l-8.478,8.478a3.113,3.113,0,0,0,0,4.4l8.478,8.48A1.037,1.037,0,1,1,678,1295.6Z" transform="translate(-518 312)"/></g></svg>