<svg xmlns="http://www.w3.org/2000/svg" width="32" height="32" viewBox="0 0 32 32"><g transform="translate(-150 -1649)"><rect width="32" height="32" transform="translate(150 1649)" fill="none"/><path d="M20,26.667H6.667A6.675,6.675,0,0,1,0,20V6.667A6.675,6.675,0,0,1,6.667,0H20a6.675,6.675,0,0,1,6.667,6.667V20A6.675,6.675,0,0,1,20,26.667Zm12-1.333V8a1.333,1.333,0,1,0-2.667,0V25.333a4,4,0,0,1-4,4H8A1.333,1.333,0,1,0,8,32H25.333A6.675,6.675,0,0,0,32,25.333Z" transform="translate(150 1649)"/></g></svg>