<svg xmlns="http://www.w3.org/2000/svg" width="32" height="31.997" viewBox="0 0 32 31.997"><path d="M30.664,21.332a1.333,1.333,0,0,1-.595-.14L27.4,19.858a1.334,1.334,0,1,1,1.192-2.386l2.666,1.333a1.333,1.333,0,0,1-.6,2.526ZM28.594,9.2,31.26,7.866A1.334,1.334,0,0,0,30.068,5.48L27.4,6.813A1.334,1.334,0,1,0,28.594,9.2ZM32,13.332A1.333,1.333,0,0,0,30.664,12H28a1.333,1.333,0,0,0,0,2.666h2.666A1.333,1.333,0,0,0,32,13.332Zm-8,12v-24a1.333,1.333,0,0,0-2.666,0c0,3.932-3.444,5.333-6.666,5.333H5.333A5.333,5.333,0,0,0,0,12v2.666A5.333,5.333,0,0,0,5.333,20h9.333c3.222,0,6.666,1.4,6.666,5.333a1.333,1.333,0,1,0,2.666,0ZM10.914,22.665H5.333a8,8,0,0,1-1.843-.223l3.333,7.442A3.561,3.561,0,0,0,10.076,32a3.282,3.282,0,0,0,2.989-4.629Z"/></svg>