<svg xmlns="http://www.w3.org/2000/svg" width="32" height="31.999" viewBox="0 0 32 31.999"><g transform="translate(-92 -9)"><path d="M615-548a4,4,0,0,1-4-4v-5.334a1.333,1.333,0,0,1,1.333-1.333,1.333,1.333,0,0,1,1.333,1.333V-552A1.333,1.333,0,0,0,615-550.667h24A1.333,1.333,0,0,0,640.333-552v-5.334a1.334,1.334,0,0,1,1.333-1.333A1.334,1.334,0,0,1,643-557.334V-552a4,4,0,0,1-4,4Zm9.173-7.834-6.115-6.115a1.333,1.333,0,0,1,0-1.885,1.333,1.333,0,0,1,1.885,0l5.724,5.724v-20.556A1.333,1.333,0,0,1,627-580a1.333,1.333,0,0,1,1.333,1.333v20.555l5.724-5.721a1.334,1.334,0,0,1,1.886,0,1.334,1.334,0,0,1,0,1.885l-6.114,6.114A4,4,0,0,1,627-554.667,4,4,0,0,1,624.172-555.834Z" transform="translate(-519 589)"/></g></svg>