<svg xmlns="http://www.w3.org/2000/svg" width="32" height="32" viewBox="0 0 32 32"><g transform="translate(-150 -1999)"><rect width="32" height="32" transform="translate(150 1999)" fill="none"/><path d="M24.667,11.232v-1.9A9.333,9.333,0,1,0,6,9.333v1.9a6.667,6.667,0,0,0-4,6.1v8A6.675,6.675,0,0,0,8.667,32H22a6.675,6.675,0,0,0,6.667-6.667v-8A6.667,6.667,0,0,0,24.667,11.232Zm-8,11.435a1.333,1.333,0,0,1-2.667,0V20a1.333,1.333,0,0,1,2.667,0Zm5.333-12H8.667V9.333A6.667,6.667,0,0,1,22,9.333Z" transform="translate(151 1999)"/></g></svg>