<svg xmlns="http://www.w3.org/2000/svg" width="31.999" height="32" viewBox="0 0 31.999 32"><path d="M9.724,9.212,7.2,6.687,2.276,11.609A1.333,1.333,0,1,1,.391,9.724L5.313,4.8,2.788,2.276A1.333,1.333,0,0,1,3.733,0h6.352A1.915,1.915,0,0,1,12,1.915V8.267a1.333,1.333,0,0,1-2.276.945Z" transform="translate(19.999)"/><path d="M21.687,22.2l2.525,2.525A1.333,1.333,0,0,1,23.267,27H16.915A1.915,1.915,0,0,1,15,25.085V18.733a1.333,1.333,0,0,1,2.276-.944L19.8,20.313l4.923-4.923a1.333,1.333,0,1,1,1.885,1.885Z" transform="translate(-15 5)"/></svg>