<svg xmlns="http://www.w3.org/2000/svg" width="32" height="32" viewBox="0 0 32 32"><g transform="translate(-150 -2209)"><rect width="32" height="32" transform="translate(150 2209)" fill="none"/><path d="M674.667,1300.333a6.676,6.676,0,0,1-6.667-6.667v-16c0-.21.043-.4.061-.611l11.225,11.223a6.675,6.675,0,0,0,9.428,0l11.225-11.223c.018.21.061.4.061.611v16a6.676,6.676,0,0,1-6.667,6.667Zm6.5-13.939-12.179-12.18a6.647,6.647,0,0,1,5.675-3.215h18.666a6.647,6.647,0,0,1,5.675,3.215l-12.179,12.18a4.007,4.007,0,0,1-5.658,0Z" transform="translate(-518 939)"/></g></svg>