<svg xmlns="http://www.w3.org/2000/svg" width="32" height="32" viewBox="0 0 32 32"><path d="M674.667,1303a6.675,6.675,0,0,1-6.667-6.667v-12h32v12a6.676,6.676,0,0,1-6.667,6.667Zm14-10.667a2,2,0,1,0,2-2A2,2,0,0,0,688.666,1292.333Zm-6.666,0a2,2,0,1,0,2-2A2,2,0,0,0,682,1292.333Zm-6.667,0a2,2,0,1,0,2-2A2,2,0,0,0,675.333,1292.333ZM668,1281.666v-1.333a6.676,6.676,0,0,1,6.667-6.667H676v-1.333a1.333,1.333,0,1,1,2.666,0v1.333h10.667v-1.333a1.333,1.333,0,1,1,2.666,0v1.333h1.333a6.676,6.676,0,0,1,6.667,6.667v1.333Z" transform="translate(-668 -1271)"/></svg>