<svg xmlns="http://www.w3.org/2000/svg" width="32" height="32" viewBox="0 0 32 32"><path d="M697.723,1302.609l-4.922-4.922-2.524,2.523a1.333,1.333,0,0,1-2.276-.943v-6.353a1.914,1.914,0,0,1,1.914-1.914h6.353a1.333,1.333,0,0,1,.946,2.274l-2.526,2.526,4.921,4.924a1.333,1.333,0,1,1-1.885,1.885Zm-29.332,0a1.333,1.333,0,0,1,0-1.885l4.922-4.924-2.524-2.524a1.333,1.333,0,0,1,.943-2.276h6.353a1.914,1.914,0,0,1,1.914,1.914v6.353a1.333,1.333,0,0,1-2.274.946l-2.526-2.526-4.924,4.922a1.333,1.333,0,0,1-1.885,0ZM696.267,1283h-6.353a1.914,1.914,0,0,1-1.914-1.914v-6.353a1.334,1.334,0,0,1,2.276-.946l2.524,2.526,4.924-4.922a1.333,1.333,0,1,1,1.885,1.886l-4.922,4.922,2.524,2.524a1.333,1.333,0,0,1-.94,2.277Zm-24.534,0a1.333,1.333,0,0,1-.944-2.277l2.525-2.524-4.922-4.924a1.333,1.333,0,0,1,1.885-1.885l4.924,4.922,2.525-2.526a1.333,1.333,0,0,1,2.275.946v6.353a1.914,1.914,0,0,1-1.914,1.914Z" transform="translate(-668 -1271)"/></svg>