<svg xmlns="http://www.w3.org/2000/svg" width="32" height="32" viewBox="0 0 32 32"><path d="M690.666,1303a1.333,1.333,0,1,1,0-2.666h2.666a4,4,0,0,0,4-4v-2.667a1.333,1.333,0,1,1,2.666,0v2.667a6.676,6.676,0,0,1-6.667,6.667Zm-16,0a6.675,6.675,0,0,1-6.667-6.667v-2.667a1.333,1.333,0,1,1,2.666,0v2.667a4,4,0,0,0,4,4h2.666a1.333,1.333,0,1,1,0,2.666Zm22.666-22.667v-2.666a4,4,0,0,0-4-4h-2.666a1.333,1.333,0,1,1,0-2.666h2.666a6.676,6.676,0,0,1,6.667,6.667v2.666a1.333,1.333,0,0,1-2.666,0Zm-29.334,0v-2.666a6.676,6.676,0,0,1,6.667-6.667h2.666a1.333,1.333,0,1,1,0,2.666h-2.666a4,4,0,0,0-4,4v2.666a1.333,1.333,0,0,1-2.666,0Z" transform="translate(-668 -1271)"/></svg>