<svg xmlns="http://www.w3.org/2000/svg" width="32" height="32" viewBox="0 0 32 32"><path d="M670.718,1295.873l5.431-3.136a9.679,9.679,0,0,0,11.784,3.161l3.122,5.408A15.671,15.671,0,0,1,684,1303,15.984,15.984,0,0,1,670.718,1295.873Zm19.02-1.023a9.813,9.813,0,0,0,3.348-4.376h-7.347a1.043,1.043,0,0,1-1.044-1.043v-4.17a1.044,1.044,0,0,1,1.044-1.043h13.11a1.05,1.05,0,0,1,1.041.931,15.4,15.4,0,0,1-.451,5.961,16.341,16.341,0,0,1-6.581,9.146ZM668,1287a15.91,15.91,0,0,1,1.65-7.08l5.45,3.147a9.644,9.644,0,0,0,0,7.868l-5.427,3.133A15.83,15.83,0,0,1,668,1287Zm2.7-8.886a16,16,0,0,1,23.8-3.191,1.048,1.048,0,0,1,.052,1.53l-2.971,2.971a1.034,1.034,0,0,1-1.391.068,9.694,9.694,0,0,0-14.035,1.771Z" transform="translate(-668 -1271)"/></svg>