<svg xmlns="http://www.w3.org/2000/svg" width="32" height="32" viewBox="0 0 32 32"><g transform="translate(-570 -389)"><rect width="32" height="32" transform="translate(570 389)" fill="none"/><path d="M6.67,28.7a2.67,2.67,0,0,0,2.67-2.67v-8.01a2.67,2.67,0,0,0-2.67-2.67V14.014a9.345,9.345,0,0,1,18.689,0v1.335a2.67,2.67,0,0,0-2.67,2.67v8.01h-4a1.335,1.335,0,1,0,0,2.67h6.675a6.675,6.675,0,0,0,2.67-12.783v-1.9A12.014,12.014,0,1,0,4,14.014v1.9A6.675,6.675,0,0,0,6.67,28.7Z" transform="translate(569.986 390)"/></g></svg>