<svg xmlns="http://www.w3.org/2000/svg" width="32" height="32" viewBox="0 0 32 32"><g transform="translate(-571 -600)"><rect width="32" height="32" transform="translate(571 600)" fill="none"/><path d="M14.71,7.355a7.355,7.355,0,1,0,7.355,7.355A7.355,7.355,0,0,0,14.71,7.355Zm2.758,8.274H15.63v1.839a.919.919,0,0,1-1.839,0V15.629H11.952a.919.919,0,1,1,0-1.839h1.839V11.952a.919.919,0,0,1,1.839,0V13.79h1.839a.919.919,0,1,1,0,1.839ZM4.6,11.032H4.58a.919.919,0,0,1-.819-.539L.135,2.518A1.849,1.849,0,0,1,.541.541,1.83,1.83,0,0,1,2.436.1a.821.821,0,0,1,.083.034L10.494,3.76a.919.919,0,0,1,.03,1.655l-3.4,1.7-1.7,3.4A.919.919,0,0,1,4.6,11.032Z" transform="translate(587.334 600.364) rotate(45)"/></g></svg>