<svg xmlns="http://www.w3.org/2000/svg" width="31.992" height="32" viewBox="0 0 31.992 32"><path d="M670.746,1300.257a9.37,9.37,0,0,1,0-13.251l4.348-4.353a1.334,1.334,0,1,1,1.887,1.885l-4.35,4.353a6.7,6.7,0,0,0,9.481,9.478l4.349-4.349h0a1.333,1.333,0,1,1,1.885,1.885L684,1300.254a9.37,9.37,0,0,1-13.251,0Zm8.309-8.316a1.334,1.334,0,0,1,0-1.886l8-8a1.333,1.333,0,0,1,1.886,1.885l-8,8a1.332,1.332,0,0,1-1.885,0Zm11.961-.6a1.335,1.335,0,0,1,0-1.887l4.349-4.348a6.7,6.7,0,1,0-9.477-9.479l-4.353,4.348a1.333,1.333,0,1,1-1.885-1.886l4.355-4.35A9.369,9.369,0,0,1,697.251,1287l-4.348,4.347a1.336,1.336,0,0,1-1.887,0Z" transform="translate(-668 -1271)"/></svg>