<svg xmlns="http://www.w3.org/2000/svg" width="32" height="32" viewBox="0 0 32 32">
  <g id="Group_166" data-name="Group 166" transform="translate(-570 -879)">
    <rect id="Rectangle_69" data-name="Rectangle 69" width="32" height="32" transform="translate(570 879)" fill="none"/>
    <path id="Subtraction_15" data-name="Subtraction 15" d="M656.663,1278H637.82l5.332-5.333h3.611l.328-.389a2.661,2.661,0,0,1,2.036-.944h7.536a3.333,3.333,0,1,1,0,6.665Zm-23.086,0h-2.245a3.333,3.333,0,0,1,0-6.665h7.534a2.65,2.65,0,0,1,1.127.249L633.578,1278Zm12.354-8h-.109l4.67-4.67.011.011v-.023l6.8-6.8a6.635,6.635,0,0,1,.359,2.15v8.145a6.551,6.551,0,0,0-1.334-.147h-6.87a5.331,5.331,0,0,0-3.528,1.333Zm-3.857-.495h0a5.312,5.312,0,0,0-2.867-.838h-6.875a6.6,6.6,0,0,0-1.333.147v-8.145a6.685,6.685,0,0,1,6.666-6.666H651a6.634,6.634,0,0,1,4.665,1.915l-5.159,5.159v-2.744l-2.547,2.546v-2.246a.638.638,0,0,0-.659-.629h-7.669a.615.615,0,0,0-.629.629v6.411a.615.615,0,0,0,.629.629h6.279l-3.833,3.833Zm5.882-5.882v-.828l.414.414-.412.412Z" transform="translate(-58 -371)"/>
    <rect id="Rectangle_151" data-name="Rectangle 151" width="3" height="39" rx="1.5" transform="translate(598.577 880) rotate(45)"/>
  </g>
</svg>
