<svg xmlns="http://www.w3.org/2000/svg" width="32" height="32" viewBox="0 0 32 32"><g transform="translate(-570 -879)"><rect width="32" height="32" transform="translate(570 879)" fill="none"/><path d="M671.333,1295a3.333,3.333,0,1,1,0-6.665h7.534a2.665,2.665,0,0,1,2.037.943l.328.39h5.531l.328-.389a2.664,2.664,0,0,1,2.036-.944h7.536a3.333,3.333,0,1,1,0,6.665Zm14.6-8h-3.2a5.321,5.321,0,0,0-3.523-1.333h-6.875a6.6,6.6,0,0,0-1.333.147v-8.145a6.686,6.686,0,0,1,6.666-6.666H691a6.685,6.685,0,0,1,6.666,6.666v8.145a6.563,6.563,0,0,0-1.334-.147h-6.87a5.331,5.331,0,0,0-3.528,1.333ZM679,1275.629v6.411a.615.615,0,0,0,.629.629H687.3a.637.637,0,0,0,.659-.629v-2.247l2.547,2.546v-7.009l-2.547,2.546v-2.246a.637.637,0,0,0-.659-.629h-7.669A.616.616,0,0,0,679,1275.629Z" transform="translate(-98 -388)"/><rect width="3" height="39" rx="1.5" transform="translate(598.577 880) rotate(45)"/></g></svg>