<svg xmlns="http://www.w3.org/2000/svg" width="32" height="32" viewBox="0 0 32 32"><g transform="translate(-570 -1159)"><rect width="32" height="32" transform="translate(570 1159)" fill="none"/><path d="M26.223,3.678A16,16,0,1,0,16.015,32h9.308a6.674,6.674,0,0,0,6.666-6.666V14.994A16.056,16.056,0,0,0,26.223,3.678ZM10.659,9.333h5.333a1.333,1.333,0,1,1,0,2.666H10.659a1.333,1.333,0,0,1,0-2.666ZM21.324,22.665H10.659a1.333,1.333,0,0,1,0-2.666H21.324a1.333,1.333,0,0,1,0,2.666Zm0-5.333H10.659a1.333,1.333,0,0,1,0-2.666H21.324a1.333,1.333,0,0,1,0,2.666Z" transform="translate(569.98 1159.003)"/></g></svg>