<svg xmlns="http://www.w3.org/2000/svg" width="32" height="32" viewBox="0 0 32 32"><g transform="translate(-570 -1229)"><rect width="32" height="32" transform="translate(570 1229)" fill="none"/><path d="M698.473,1281.1a1,1,0,0,1-1-1V1272a1,1,0,0,1,1-1H699a1,1,0,0,1,1,1v8.105a1,1,0,0,1-1,1Zm-4.21,0a1,1,0,0,1-1-1V1272a1,1,0,0,1,1-1h.526a1,1,0,0,1,1,1v8.105a1,1,0,0,1-1,1Zm-4.21,0a1,1,0,0,1-1-1V1272a1,1,0,0,1,1-1h.526a1,1,0,0,1,1,1v8.105a1,1,0,0,1-1,1Zm-4.211,0a1,1,0,0,1-1-1V1272a1,1,0,0,1,1-1h.526a1,1,0,0,1,1,1v8.105a1,1,0,0,1-1,1Zm-4.21,0a1,1,0,0,1-1-1V1272a1,1,0,0,1,1-1h.526a1,1,0,0,1,1,1v8.105a1,1,0,0,1-1,1Zm-4.21,0a1,1,0,0,1-1-1V1272a1,1,0,0,1,1-1h.526a1,1,0,0,1,1,1v8.105a1,1,0,0,1-1,1Zm-4.211,0a1,1,0,0,1-1-1V1272a1,1,0,0,1,1-1h.526a1,1,0,0,1,1,1v8.105a1,1,0,0,1-1,1Zm-4.21,0a1,1,0,0,1-1-1V1272a1,1,0,0,1,1-1h.527a1,1,0,0,1,1,1v8.105a1,1,0,0,1-1,1Z" transform="translate(-98 -31)"/></g></svg>