<svg xmlns="http://www.w3.org/2000/svg" width="32" height="32" viewBox="0 0 32 32">
  <g id="Group_160" data-name="Group 160" transform="translate(-570 -1369)">
    <g id="Group_149" data-name="Group 149">
      <rect id="Rectangle_154" data-name="Rectangle 154" width="32" height="32" transform="translate(570 1369)" fill="none"/>
      <path id="Subtraction_11" data-name="Subtraction 11" d="M644.841,1285h-6.026a.938.938,0,0,1,0-1.876h2.075v-4.19a10.933,10.933,0,0,1-2.382-.473l1.536-1.536A9.109,9.109,0,0,0,650.932,1268a.937.937,0,0,1,1.875,0,10.993,10.993,0,0,1-10.041,10.939v4.19h2.075a.938.938,0,0,1,0,1.876Zm-9.184-7.929h0a10.984,10.984,0,0,1-4.807-9.075.938.938,0,0,1,1.876,0,9.066,9.066,0,0,0,4.286,7.722l-1.353,1.353Zm4.435-4.435h0a4.982,4.982,0,0,1-3.217-4.64v-10.041a4.954,4.954,0,1,1,9.908,0v7.992l-6.69,6.69Z" transform="translate(-55.849 116)"/>
      <rect id="Rectangle_155" data-name="Rectangle 155" width="3" height="39" rx="1.5" transform="translate(598.728 1370.151) rotate(45)"/>
    </g>
  </g>
</svg>
