<svg xmlns="http://www.w3.org/2000/svg" width="32.001" height="32" viewBox="0 0 32.001 32">
  <g id="Group_159" data-name="Group 159" transform="translate(-570 -1299)">
    <rect id="Rectangle_79" data-name="Rectangle 79" width="32" height="32" transform="translate(570 1299)" fill="none"/>
    <path id="Subtraction_10" data-name="Subtraction 10" d="M646.456,1274.467H630.709a2.712,2.712,0,0,1-2.709-2.709v-16.049a2.712,2.712,0,0,1,2.709-2.709h15.746a2.712,2.712,0,0,1,2.709,2.709v16.049A2.712,2.712,0,0,1,646.456,1274.467Zm-8.97-4.287a.41.41,0,0,0,0,.82h2.636a.41.41,0,1,0,0-.82h-.908v-1.833a4.831,4.831,0,0,0,4.394-4.786.41.41,0,0,0-.821,0,3.983,3.983,0,1,1-7.966,0,.41.41,0,0,0-.82,0,4.832,4.832,0,0,0,4.393,4.786v1.833ZM638.8,1257a2.17,2.17,0,0,0-2.168,2.167v4.393a2.168,2.168,0,1,0,4.335,0v-4.393A2.17,2.17,0,0,0,638.8,1257Zm19.837,15.932a1.33,1.33,0,0,1-.86-.318l-5.906-4.92v-8.128l5.906-4.922a1.33,1.33,0,0,1,.859-.316,1.363,1.363,0,0,1,1.362,1.357v15.89A1.362,1.362,0,0,1,658.641,1272.932Z" transform="translate(-58 51)"/>
  </g>
</svg>
