<svg xmlns="http://www.w3.org/2000/svg" width="32" height="32" viewBox="0 0 32 32"><g transform="translate(-570 -1369)"><rect width="32" height="32" transform="translate(570 1369)" fill="none"/><path d="M682.666,1303a14.624,14.624,0,0,1-9.415-3.43l-1.069,1.069a1.5,1.5,0,0,1-2.121-2.121l1.1-1.1a14.624,14.624,0,0,1-3.16-9.084,1.333,1.333,0,1,1,2.667,0,11.96,11.96,0,0,0,2.394,7.184l2.286-2.286a10.622,10.622,0,0,1-1.922-4.9H680a1.339,1.339,0,0,0,.273-.028l1.033-1.033a1.334,1.334,0,0,0-1.306-1.606h-6.665V1283H680a1.334,1.334,0,0,0,0-2.669h-6.575a10.659,10.659,0,0,1,19.429-4.609l2.662-2.662a1.5,1.5,0,1,1,2.121,2.121l-3.425,3.425a10.709,10.709,0,0,1,.362,1.725h-2.087L689.819,1283h4.846v2.666H688a1.333,1.333,0,1,0,0,2.667h6.575a10.657,10.657,0,0,1-17.15,7.062l-2.281,2.281a11.968,11.968,0,0,0,7.522,2.657h2.668a12.013,12.013,0,0,0,12-12,1.333,1.333,0,1,1,2.667,0A14.684,14.684,0,0,1,685.334,1303Zm4-21.333a1.35,1.35,0,0,0,.019.226l1.56-1.56H688A1.334,1.334,0,0,0,686.667,1281.666Z" transform="translate(-98 98.002)"/></g></svg>