<svg xmlns="http://www.w3.org/2000/svg" width="32.001" height="32" viewBox="0 0 32.001 32"><g transform="translate(-570 -1299)"><rect width="32" height="32" transform="translate(570 1299)" fill="none"/><path d="M686.455,1292.467H670.709a2.712,2.712,0,0,1-2.709-2.709v-16.049a2.712,2.712,0,0,1,2.709-2.709h15.746a2.712,2.712,0,0,1,2.709,2.709v16.049A2.712,2.712,0,0,1,686.455,1292.467Zm-13.891-10.691a.565.565,0,0,0-.564.565,6.229,6.229,0,0,0,6.212,6.212h1.13a6.229,6.229,0,0,0,6.211-6.212.564.564,0,1,0-1.129,0,5.1,5.1,0,0,1-5.082,5.082h-1.13a5.1,5.1,0,0,1-5.082-5.082A.566.566,0,0,0,672.565,1281.776Zm1.733.565a4.513,4.513,0,0,0,8.957,0H680.47a.565.565,0,0,1,0-1.13h2.824v-1.129H680.47a.565.565,0,0,1,0-1.13h2.785a4.513,4.513,0,0,0-8.957,0h2.785a.565.565,0,0,1,0,1.13h-2.823v1.129h2.823a.565.565,0,0,1,0,1.13Zm24.342,8.591a1.33,1.33,0,0,1-.86-.318l-5.906-4.92v-8.128l5.906-4.922a1.33,1.33,0,0,1,.859-.316,1.363,1.363,0,0,1,1.362,1.357v15.89A1.362,1.362,0,0,1,698.64,1290.932Z" transform="translate(-98 33)"/></g></svg>