<svg xmlns="http://www.w3.org/2000/svg" width="32" height="32" viewBox="0 0 32 32">
  <g id="Group_162" data-name="Group 162" transform="translate(-570 -1509)">
    <g id="Group_151" data-name="Group 151">
      <rect id="Rectangle_82" data-name="Rectangle 82" width="32" height="32" transform="translate(570 1509)" fill="none"/>
      <path id="Union_75" data-name="Union 75" d="M635.967,1285a.938.938,0,0,1,0-1.875h2.075v-4.191A10.994,10.994,0,0,1,628,1268a.938.938,0,0,1,1.875,0,9.1,9.1,0,0,0,18.208,0,.938.938,0,0,1,1.875,0,10.994,10.994,0,0,1-10.042,10.939v4.191h2.075a.938.938,0,0,1,0,1.875Zm-1.942-17v-10.042a4.954,4.954,0,0,1,9.908,0V1268a4.954,4.954,0,0,1-9.908,0Zm1.875-10.042V1268a3.079,3.079,0,0,0,6.158,0v-10.042a3.079,3.079,0,0,0-6.158,0Z" transform="translate(-52.979 256)"/>
    </g>
  </g>
</svg>
