<svg xmlns="http://www.w3.org/2000/svg" width="32" height="32" viewBox="0 0 32 32">
  <g id="Group_161" data-name="Group 161" transform="translate(-570 -1439)">
    <rect id="Rectangle_153" data-name="Rectangle 153" width="32" height="32" transform="translate(570 1439)" fill="none"/>
    <path id="Union_76" data-name="Union 76" d="M635.967,1285a.938.938,0,0,1,0-1.875h2.075v-4.19A10.994,10.994,0,0,1,628,1268a.938.938,0,0,1,1.875,0,9.1,9.1,0,0,0,18.208,0,.938.938,0,0,1,1.875,0,10.994,10.994,0,0,1-10.042,10.939v4.19h2.075a.938.938,0,0,1,0,1.875Zm-1.942-17v-10.042a4.954,4.954,0,0,1,9.908,0V1268a4.954,4.954,0,0,1-9.908,0Z" transform="translate(-53 186)"/>
  </g>
</svg>
