<svg xmlns="http://www.w3.org/2000/svg" width="32" height="32" viewBox="0 0 32 32"><g transform="translate(-570 -1439)"><rect width="32" height="32" transform="translate(570 1439)" fill="none"/><path d="M682.666,1303A14.684,14.684,0,0,1,668,1288.332a1.333,1.333,0,1,1,2.666,0,12.015,12.015,0,0,0,12,12h2.668a12.013,12.013,0,0,0,12-12,1.333,1.333,0,1,1,2.666,0A14.684,14.684,0,0,1,685.334,1303Zm-9.241-14.666H680a1.333,1.333,0,1,0,0-2.666h-6.666V1283H680a1.334,1.334,0,0,0,0-2.668h-6.575a10.658,10.658,0,0,1,21.15,0H688a1.334,1.334,0,0,0,0,2.668h6.666v2.666H688a1.333,1.333,0,1,0,0,2.666h6.575a10.658,10.658,0,0,1-21.15,0Z" transform="translate(-98 168)"/></g></svg>