<svg xmlns="http://www.w3.org/2000/svg" width="32" height="32" viewBox="0 0 32 32"><path d="M682.666,1303A14.685,14.685,0,0,1,668,1288.334a1.333,1.333,0,0,1,2.666,0,12.015,12.015,0,0,0,12,12h2.667a12.013,12.013,0,0,0,12-12,1.333,1.333,0,0,1,2.666,0A14.685,14.685,0,0,1,685.334,1303Zm-9.332-16v-5.334a10.666,10.666,0,1,1,21.332,0V1287a10.666,10.666,0,0,1-21.332,0ZM684,1295a7.99,7.99,0,0,0,7.879-6.665H688a1.334,1.334,0,0,1,0-2.668h4V1283h-4a1.333,1.333,0,0,1,0-2.667h3.88a7.99,7.99,0,0,0-15.759,0H680a1.333,1.333,0,0,1,0,2.667h-4v2.666h4a1.334,1.334,0,0,1,0,2.668h-3.88A7.99,7.99,0,0,0,684,1295Z" transform="translate(-668 -1271)"/></svg>