<svg xmlns="http://www.w3.org/2000/svg" width="32.001" height="32" viewBox="0 0 32.001 32"><g transform="translate(-569.999 -1649)"><rect width="32" height="32" transform="translate(570 1649)" fill="#fff"/><path d="M676.249,1303a8.227,8.227,0,0,1-5.3-1.93l-.6.6a.844.844,0,0,1-1.193-1.193l.618-.619A8.229,8.229,0,0,1,668,1294.75a.75.75,0,0,1,1.5,0,6.729,6.729,0,0,0,1.346,4.041l1.286-1.286A5.98,5.98,0,0,1,671,1294v-3a6,6,0,0,1,10.982-3.344l1.5-1.5a.844.844,0,0,1,1.193,1.193l-1.922,1.922A5.993,5.993,0,0,1,683,1291v3a6,6,0,0,1-9.7,4.721l-1.283,1.283a6.73,6.73,0,0,0,4.23,1.495h1.5a6.757,6.757,0,0,0,6.75-6.75.75.75,0,0,1,1.5,0,8.26,8.26,0,0,1-8.25,8.25Zm-1.876-5.349a4.494,4.494,0,0,0,7.06-2.9H679.25a.75.75,0,0,1,0-1.5h2.25v-1.5h-1.227Zm-1.161-1.227,1.692-1.691a.723.723,0,0,1-.154.016h-2.182A4.494,4.494,0,0,0,673.212,1296.425Zm-.712-3.175h2.25a.75.75,0,0,1,.75.751.776.776,0,0,1-.015.153l3.027-3.027a.74.74,0,0,1-.011-.127.749.749,0,0,1,.75-.75h.138l1.5-1.5a4.493,4.493,0,0,0-8.323,1.5h2.182a.75.75,0,0,1,0,1.5H672.5ZM692.417,1285a6.4,6.4,0,0,1-4.119-1.5l-.468.468a.656.656,0,0,1-.928-.929l.482-.481a6.393,6.393,0,0,1-1.383-3.974.583.583,0,1,1,1.166,0,5.238,5.238,0,0,0,1.048,3.143l1-1a4.646,4.646,0,0,1-.881-2.725v-2.334a4.667,4.667,0,0,1,8.541-2.6l1.164-1.164a.656.656,0,0,1,.929.928l-1.5,1.5a4.676,4.676,0,0,1,.2,1.341V1278a4.664,4.664,0,0,1-7.542,3.673l-1,1a5.238,5.238,0,0,0,3.291,1.163h1.166a5.258,5.258,0,0,0,5.251-5.251.583.583,0,1,1,1.166,0,6.425,6.425,0,0,1-6.417,6.417Zm-1.46-4.16a3.5,3.5,0,0,0,5.49-2.257h-1.7a.583.583,0,1,1,0-1.166h1.75v-1.167h-.953Zm-.9-.954,1.315-1.315a.65.65,0,0,1-.12.012h-1.7A3.489,3.489,0,0,0,690.054,1279.886Zm-.554-2.47h1.75a.586.586,0,0,1,.572.7l2.353-2.354a.609.609,0,0,1-.008-.1.583.583,0,0,1,.583-.583h.107l1.169-1.169a3.495,3.495,0,0,0-6.474,1.169h1.7a.583.583,0,1,1,0,1.166H689.5Z" transform="translate(-98 378)"/></g></svg>