<svg xmlns="http://www.w3.org/2000/svg" width="32.11" height="32" viewBox="0 0 32.11 32">
  <g id="mute-everyone-else" transform="translate(-570 -1649)">
    <g id="Group_157" data-name="Group 157" transform="translate(0 70)">
      <g id="Group_83" data-name="Group 83">
        <g id="Group_82" data-name="Group 82">
          <rect id="Rectangle_83" data-name="Rectangle 83" width="32" height="32" transform="translate(570 1579)" fill="none"/>
        </g>
      </g>
      <path id="Union_79" data-name="Union 79" d="M635.442,1272a.557.557,0,1,1,0-1.113h1.264V1268.4a6.6,6.6,0,0,1-6.119-6.495.571.571,0,0,1,1.143,0,5.549,5.549,0,0,0,11.095,0,.571.571,0,0,1,1.142,0,6.6,6.6,0,0,1-6.118,6.495v2.488h1.264a.557.557,0,1,1,0,1.113Zm-1.183-10.1v-5.962a3.02,3.02,0,0,1,6.037,0v5.962a3.02,3.02,0,0,1-6.037,0Z" transform="translate(-57.849 339)"/>
      <path id="Union_81" data-name="Union 81" d="M633.475,1267a.41.41,0,0,1,0-.82h.9v-1.834a4.69,4.69,0,0,1-1.032-.207l.666-.672a3.949,3.949,0,0,0,4.721-3.907.406.406,0,1,1,.812,0,4.809,4.809,0,0,1-1.264,3.256,4.728,4.728,0,0,1-3.09,1.529v1.834h.9a.41.41,0,0,1,0,.82Zm-4.664-.968a.66.66,0,0,1,0-.928l2.376-2.4a4.822,4.822,0,0,1-1.167-3.146.407.407,0,1,1,.813,0,3.98,3.98,0,0,0,.928,2.567l1.284-1.295a2.18,2.18,0,0,1-.412-1.272v-4.394a2.148,2.148,0,1,1,4.3,0v1.747l2.92-2.946a.647.647,0,0,1,.92,0,.661.661,0,0,1,0,.928l-11.038,11.136a.646.646,0,0,1-.919,0Z" transform="translate(-38.849 326)"/>
    </g>
  </g>
</svg>
