<svg xmlns="http://www.w3.org/2000/svg" width="32" height="32" viewBox="0 0 32 32"><g transform="translate(-570 -1789)"><rect width="32" height="32" transform="translate(570 1789)" fill="none"/><path d="M672.669,1298.331a15.909,15.909,0,0,1-4.669-10.4h5.919a10.064,10.064,0,0,0,2.922,6.227.939.939,0,0,1,0,1.328L674,1298.331a.939.939,0,0,1-1.328,0Zm21.334,0-.974-.974a2.816,2.816,0,0,0,1.155-4.046c-.262-.411-.658-1.031-1.134-1.764a9.986,9.986,0,0,0,1.031-3.614H700a15.909,15.909,0,0,1-4.669,10.4.939.939,0,0,1-1.328,0Zm-2.7-2.72c-.808-.514-7.939-5.068-9.39-6.519a2.946,2.946,0,0,1,4.166-4.166c1.451,1.451,6,8.582,6.518,9.39a.937.937,0,0,1-1.294,1.294Zm2.775-9.555a10.028,10.028,0,0,0-2.294-5.525l4.183-4.183a15.888,15.888,0,0,1,4.028,9.708Zm-26.081,0a15.889,15.889,0,0,1,4.028-9.708l4.183,4.183a10.029,10.029,0,0,0-2.294,5.525Zm16.937-9.139V1271a15.89,15.89,0,0,1,9.708,4.023l-4.183,4.183A10.028,10.028,0,0,0,684.937,1276.917Zm-11.583-1.894a15.889,15.889,0,0,1,9.708-4.023v5.917a10.027,10.027,0,0,0-5.524,2.289Z" transform="translate(-98 520.163)"/></g></svg>