<svg xmlns="http://www.w3.org/2000/svg" width="32" height="32" viewBox="0 0 32 32"><g transform="translate(-570 -1929)"><rect width="32" height="32" transform="translate(570 1929)" fill="none"/><path d="M690.666,1307.889a1.333,1.333,0,0,1,0-2.667h2.667a4,4,0,0,0,4-4v-2.667a1.333,1.333,0,0,1,2.667,0v2.667a6.674,6.674,0,0,1-6.666,6.666Zm-16,0a6.675,6.675,0,0,1-6.667-6.666v-2.667a1.333,1.333,0,0,1,2.667,0v2.667a4,4,0,0,0,4,4h2.666a1.333,1.333,0,1,1,0,2.667Zm5.819-12.376a1.333,1.333,0,0,1,0-1.885l14.535-14.535h-8.095a1.333,1.333,0,1,1,0-2.667h8.648a4.009,4.009,0,0,1,4,4v8.647a1.333,1.333,0,1,1-2.667,0l0-8.093-14.534,14.534a1.333,1.333,0,0,1-1.885,0ZM668,1285.223v-2.666a6.676,6.676,0,0,1,6.667-6.667h2.666a1.333,1.333,0,1,1,0,2.667h-2.666a4,4,0,0,0-4,4v2.666a1.333,1.333,0,1,1-2.667,0Z" transform="translate(-98 653.111)"/></g></svg>