<svg xmlns="http://www.w3.org/2000/svg" width="32" height="32" viewBox="0 0 32 32"><g transform="translate(-570 -1999)"><rect width="32" height="32" transform="translate(570 1999)" fill="none"/><path d="M26.664,22.117a4.464,4.464,0,0,0-2.018-3.152c-1.54-1.229-2.747-1.8-3.8-1.8-1.315,0-2.15.853-3.033,1.755l-.276.28a.423.423,0,0,1-.333.117h0c-.558,0-2-.5-5.384-3.86A24.862,24.862,0,0,1,8.631,11.77c-.644-.983-.867-1.733-.6-2.006l.277-.276a4.77,4.77,0,0,0,1.707-2.641c.158-1.163-.4-2.455-1.805-4.19-1.088-1.344-2.158-2-3.272-2C3.431.66,2.263,1.9,1.325,2.893c-.165.175-.321.341-.473.494C-.281,4.527-.284,6.971.843,9.925A29.185,29.185,0,0,0,7.6,19.713c5.577,5.535,10.889,7.5,13.743,7.5a3.625,3.625,0,0,0,2.632-.875c.153-.155.319-.313.493-.481C25.476,24.885,26.735,23.678,26.664,22.117Z" transform="matrix(0.978, 0.208, -0.208, 0.978, 575.98, 1998.769)"/></g></svg>