<svg xmlns="http://www.w3.org/2000/svg" width="32" height="32" viewBox="0 0 32 32"><g transform="translate(-570 -2209)"><rect width="32" height="32" transform="translate(570 2209)" fill="none"/><path d="M689.333,1301.666a1.333,1.333,0,0,0-1.334-1.333h-8a1.333,1.333,0,0,0-1.334,1.333,1.333,1.333,0,1,1-2.667,0,4,4,0,0,1,4-4h2.667v-5.333H669.334a1.333,1.333,0,1,1,0-2.667h29.333a1.333,1.333,0,1,1,0,2.667H685.334v5.333H688a4,4,0,0,1,4,4,1.333,1.333,0,1,1-2.667,0ZM670.667,1287v-9.333a6.676,6.676,0,0,1,6.667-6.667h13.333a6.675,6.675,0,0,1,6.667,6.667V1287Z" transform="translate(-98 938)"/></g></svg>