<svg xmlns="http://www.w3.org/2000/svg" width="32" height="32" viewBox="0 0 32 32"><g transform="translate(-570 -2279)"><rect width="32" height="32" transform="translate(570 2279)" fill="none"/><path d="M16,0A16,16,0,1,0,32,16,16,16,0,0,0,16,0Zm4.3,9.333H11.7A26.152,26.152,0,0,1,16,3.216a26.093,26.093,0,0,1,4.3,6.117ZM21.363,12A13.615,13.615,0,0,1,22,16a13.615,13.615,0,0,1-.635,4H10.635A13.615,13.615,0,0,1,10,16a13.615,13.615,0,0,1,.635-4ZM12.533,3.141A26.235,26.235,0,0,0,8.765,9.333H4.471a13.375,13.375,0,0,1,8.063-6.192ZM2.667,16a13.317,13.317,0,0,1,.615-4H7.867a16.021,16.021,0,0,0-.533,4,16.021,16.021,0,0,0,.533,4H3.281A13.315,13.315,0,0,1,2.667,16Zm1.8,6.667H8.765a26.235,26.235,0,0,0,3.768,6.192,13.375,13.375,0,0,1-8.063-6.192Zm7.233,0H20.3A26.152,26.152,0,0,1,16,28.784a26.093,26.093,0,0,1-4.3-6.117Zm7.769,6.192a26.235,26.235,0,0,0,3.761-6.192h4.295a13.375,13.375,0,0,1-8.056,6.192ZM29.333,16a13.316,13.316,0,0,1-.615,4H24.133a16.022,16.022,0,0,0,.533-4,16.021,16.021,0,0,0-.533-4h4.583a13.315,13.315,0,0,1,.617,4Zm-6.1-6.667a26.235,26.235,0,0,0-3.761-6.192,13.375,13.375,0,0,1,8.056,6.192Z" transform="translate(570 2279)"/></g></svg>