<svg xmlns="http://www.w3.org/2000/svg" width="32" height="32" viewBox="0 0 32 32"><g transform="translate(-570 -2489)"><rect width="32" height="32" transform="translate(570 2489)" fill="none"/><path d="M23.469,3.75a1.406,1.406,0,0,0-1.406,1.406V12.25a.938.938,0,0,1-1.875,0V3.281a1.406,1.406,0,1,0-2.812,0V12.25a.937.937,0,1,1-1.875,0V1.406a1.406,1.406,0,0,0-2.812,0V12.25a.937.937,0,0,1-1.875,0V3.281A1.406,1.406,0,0,0,8,3.281V14.835L9.165,16h1.648a6.57,6.57,0,0,1,6.562,6.562.937.937,0,1,1-1.875,0,4.693,4.693,0,0,0-4.687-4.687H8.777a.937.937,0,0,1-.663-.275L5.056,14.542a3.059,3.059,0,0,0-4.264-.159l-.023.023a.945.945,0,0,0-.056,1.256l8.5,10.043a2.8,2.8,0,0,1,.662,1.807v3.55a.937.937,0,0,0,.937.938h11.25A.937.937,0,0,0,23,31.063v-2.35a7.3,7.3,0,0,1,.867-3.38,8.886,8.886,0,0,0,1.008-4.12V5.156A1.406,1.406,0,0,0,23.469,3.75Zm0,0" transform="translate(573.5 2489)"/></g></svg>