<svg xmlns="http://www.w3.org/2000/svg" width="32" height="32" viewBox="0 0 32 32"><path d="M16,32A16,16,0,1,1,32,16,16,16,0,0,1,16,32Zm2.167-13.556H14.711V16.593h3.261v-1.26H14.711V13.556h3.456V12.195H13.115v7.61h5.052ZM23.087,20A3.082,3.082,0,0,0,26.4,17.221H24.846A1.678,1.678,0,0,1,23.092,18.6c-1.2,0-1.95-1-1.95-2.6s.745-2.6,1.945-2.6a1.71,1.71,0,0,1,1.754,1.45h1.554A3.137,3.137,0,0,0,23.087,12c-2.214,0-3.578,1.524-3.578,4s1.369,4,3.578,4ZM7.2,17.047H8.5l1.422,2.758H11.73L10.123,16.8a2.247,2.247,0,0,0,1.385-2.162A2.389,2.389,0,0,0,8.8,12.195H5.6v7.61H7.2Zm0-3.565v2.341H8.6A1.119,1.119,0,0,0,9.87,14.658a1.15,1.15,0,0,0-1.289-1.176H7.2Z"/></svg>