<svg xmlns="http://www.w3.org/2000/svg" width="32" height="32" viewBox="0 0 32 32"><g transform="translate(-1010 -179)"><rect width="32" height="32" transform="translate(1010 179)" fill="none"/><g transform="translate(1010.004 179)"><path d="M12,6a1,1,0,0,0-1,1v5a1,1,0,0,0,.293.707l3,3a1,1,0,1,0,1.414-1.414L13,11.586V7A1,1,0,0,0,12,6Z" transform="translate(4.678 3.468)"/><path d="M31.823,13.54A16.036,16.036,0,0,0,4.783,4.564V1.336a1.336,1.336,0,1,0-2.673,0V6.682A2.673,2.673,0,0,0,4.783,9.354h5.345a1.336,1.336,0,1,0,0-2.673H6.452A13.35,13.35,0,1,1,2.663,17.209a1.312,1.312,0,0,0-1.326-1.173A1.346,1.346,0,0,0,0,17.506a16.036,16.036,0,1,0,31.816-3.968Z" transform="translate(0)"/></g></g></svg>