<svg xmlns="http://www.w3.org/2000/svg" width="32" height="32" viewBox="0 0 32 32"><path d="M16,32A16,16,0,1,1,32,16,16,16,0,0,1,16,32ZM8.8,17.9c.06,1.471,1.28,2.4,3.161,2.4,1.98,0,3.2-.973,3.2-2.565,0-1.225-.684-1.909-2.27-2.242l-.952-.2c-.924-.2-1.3-.476-1.3-.963,0-.6.547-.984,1.373-.984a1.317,1.317,0,0,1,1.455,1.039h1.553C14.968,12.974,13.737,12,12,12c-1.821,0-3.019.979-3.019,2.466,0,1.2.7,1.952,2.144,2.253l1.028.219c.968.208,1.362.5,1.362,1,0,.6-.607,1.012-1.466,1.012-.93,0-1.575-.41-1.652-1.05H8.8Zm7.919-5.7v7.9h3.106c2.363,0,3.7-1.438,3.7-4,0-2.472-1.356-3.894-3.7-3.894H16.719Zm1.651,1.411v5.075h1.192c1.46,0,2.28-.9,2.28-2.565a2.194,2.194,0,0,0-2.28-2.51H18.37Z"/></svg>