<svg xmlns="http://www.w3.org/2000/svg" width="32.003" height="32.001" viewBox="0 0 32.003 32.001"><g transform="translate(-1010 -319)"><rect width="32" height="32" transform="translate(1010 319)" fill="none"/><path d="M698.67,1303a1.325,1.325,0,0,1-.943-.391l-7.954-7.954a13.3,13.3,0,0,1-8.415,3.011h-.021a13.334,13.334,0,0,1-5.718-25.38,13.33,13.33,0,0,1,16.212,3.826,13.333,13.333,0,0,1-.172,16.657l7.954,7.955a1.333,1.333,0,0,1-.943,2.276Zm-17.338-29.335A10.667,10.667,0,1,0,692,1284.333,10.679,10.679,0,0,0,681.332,1273.666Z" transform="translate(342 -952)"/></g></svg>