<svg xmlns="http://www.w3.org/2000/svg" width="32" height="32" viewBox="0 0 32 32"><g transform="translate(-1010 -599)"><rect width="32" height="32" transform="translate(1010 599)" fill="none"/><path d="M24.7,2.853,16.123.068a1.4,1.4,0,0,0-.865,0L6.681,2.853A6.675,6.675,0,0,0,2,9.177V16C2,26.084,14.595,31.653,15.134,31.885a1.4,1.4,0,0,0,1.112,0c.539-.232,13.134-5.8,13.134-15.885V9.177A6.675,6.675,0,0,0,24.7,2.853Zm-2.55,10.1-5.848,5.7a2.6,2.6,0,0,1-1.828.737h-.045a2.594,2.594,0,0,1-1.841-.8l-3.157-3.2a1.311,1.311,0,0,1-.391-1.324,1.354,1.354,0,0,1,1.021-.954,1.391,1.391,0,0,1,1.342.436l3.072,3.12,5.733-5.6a1.4,1.4,0,0,1,1.936,0,1.309,1.309,0,0,1,0,1.886Z" transform="translate(1010.31 599)"/></g></svg>