<svg xmlns="http://www.w3.org/2000/svg" width="32" height="32" viewBox="0 0 32 32"><g transform="translate(-1010 -389)"><rect width="32" height="32" transform="translate(1010 389)" fill="none"/><path d="M22.748,10.666H8.916V9.333A6.714,6.714,0,0,1,14.1,2.877,7.019,7.019,0,0,1,21.883,6.1a1.411,1.411,0,0,0,1.881.519A1.309,1.309,0,0,0,24.3,4.81,9.827,9.827,0,0,0,13.408.295,9.4,9.4,0,0,0,6.15,9.333v1.9A6.662,6.662,0,0,0,2,17.332v8A6.8,6.8,0,0,0,8.916,32H22.748a6.8,6.8,0,0,0,6.916-6.666v-8A6.8,6.8,0,0,0,22.748,10.666Zm-5.533,12a1.384,1.384,0,0,1-2.766,0V20a1.384,1.384,0,0,1,2.766,0Z" transform="translate(1010 389.003)"/></g></svg>