<svg xmlns="http://www.w3.org/2000/svg" width="32" height="32" viewBox="0 0 32 32"><g transform="translate(-1010.062 -668.698)"><path d="M684.09,1301.044l-2.292-2.289a1.321,1.321,0,0,0-.941-.391H676.63a3.959,3.959,0,0,1-1.713-.4l24.684-24.674a3.941,3.941,0,0,1,.289,2.654l-4.5,21.387a6.576,6.576,0,0,1-4.461,5.315,6.626,6.626,0,0,1-6.836-1.6Zm-11.459-6.676v-4.226a1.338,1.338,0,0,0-.391-.944l-2.29-2.289a6.662,6.662,0,0,1,3.806-11.31L695.1,1271.1a3.906,3.906,0,0,1,2.615.3l-24.68,24.68A3.943,3.943,0,0,1,672.631,1294.368Z" transform="translate(342.062 -602.302)"/></g></svg>