<svg xmlns="http://www.w3.org/2000/svg" width="32" height="32" viewBox="0 0 32 32"><g transform="translate(-1010 -739)"><rect width="32" height="32" transform="translate(1010 739)" fill="none"/><path d="M1.756,24A4.094,4.094,0,0,0,4.25,25.866a4.2,4.2,0,0,0,3.118-.4l.609-.343a12.371,12.371,0,0,0,3.9,2.192V28a4.108,4.108,0,0,0,8.213,0v-.684a12.371,12.371,0,0,0,3.9-2.195l.612.344A4.169,4.169,0,0,0,30.211,24a3.946,3.946,0,0,0-1.506-5.467l-.608-.341a11.824,11.824,0,0,0,0-4.387l.608-.341A3.946,3.946,0,0,0,30.211,8,4.169,4.169,0,0,0,24.6,6.529l-.609.343a12.372,12.372,0,0,0-3.9-2.188V4a4.108,4.108,0,0,0-8.213,0v.684a12.371,12.371,0,0,0-3.9,2.195l-.612-.345A4.169,4.169,0,0,0,1.753,8a3.946,3.946,0,0,0,1.506,5.467l.608.341a11.824,11.824,0,0,0,0,4.387l-.608.341A3.952,3.952,0,0,0,1.756,24ZM15.982,10.667A5.335,5.335,0,1,1,10.507,16a5.406,5.406,0,0,1,5.475-5.333Z" transform="translate(1010.03 739)"/></g></svg>