<svg xmlns="http://www.w3.org/2000/svg" width="32" height="32" viewBox="0 0 32 32"><g transform="translate(-1010 -879)"><rect width="32" height="32" transform="translate(1010 879)" fill="none"/><path d="M687.156,1299.307h-6.138a2.181,2.181,0,0,1-1.955-1.292,2.508,2.508,0,0,1,.187-2.46l3.067-4.5h0a2.1,2.1,0,0,1,3.536,0l3.067,4.5a2.507,2.507,0,0,1,.19,2.462,2.177,2.177,0,0,1-1.953,1.291Zm3.1-6.974-3.571-5.238a3.2,3.2,0,0,0-5.376,0l-3.574,5.238h-3.071a6.688,6.688,0,0,1-6.667-6.667v-8a6.688,6.688,0,0,1,6.667-6.667h18.666a6.688,6.688,0,0,1,6.667,6.667v8a6.688,6.688,0,0,1-6.667,6.667Z" transform="translate(342 -390)"/></g></svg>