<svg xmlns="http://www.w3.org/2000/svg" width="32" height="32" viewBox="0 0 32 32"><g transform="translate(-92 -9)"><path d="M615-548a4,4,0,0,1-4-4v-5.333a1.333,1.333,0,0,1,1.333-1.333,1.334,1.334,0,0,1,1.334,1.333V-552A1.334,1.334,0,0,0,615-550.667h24A1.334,1.334,0,0,0,640.333-552v-5.333a1.333,1.333,0,0,1,1.333-1.333A1.333,1.333,0,0,1,643-557.334V-552a4,4,0,0,1-4,4Zm10.667-8v-20.555l-5.724,5.724a1.334,1.334,0,0,1-1.885,0,1.334,1.334,0,0,1,0-1.885l6.115-6.116a4.01,4.01,0,0,1,5.656,0l6.115,6.115a1.334,1.334,0,0,1,0,1.885,1.332,1.332,0,0,1-1.885,0l-5.724-5.721V-556A1.333,1.333,0,0,1,627-554.666,1.333,1.333,0,0,1,625.667-556Z" transform="translate(-519 589)"/></g></svg>