<svg xmlns="http://www.w3.org/2000/svg" width="32" height="32" viewBox="0 0 32 32"><g transform="translate(-1010 -949)"><rect width="32" height="32" transform="translate(1010 949)" fill="none"/><path d="M17.48,9.03V.593a9,9,0,0,1,3.18,2.051l4.494,4.5a8.971,8.971,0,0,1,2.052,3.179H18.77A1.29,1.29,0,0,1,17.48,9.03Zm10.32,4.5V24.51a6.458,6.458,0,0,1-6.45,6.45H8.45A6.458,6.458,0,0,1,2,24.51V6.45A6.458,6.458,0,0,1,8.45,0h5.824c.21,0,.418.017.626.031v9a3.87,3.87,0,0,0,3.87,3.87h9C27.783,13.108,27.8,13.315,27.8,13.526ZM17.48,24.51a1.29,1.29,0,0,0-1.29-1.29H9.74a1.29,1.29,0,0,0,0,2.58h6.45A1.29,1.29,0,0,0,17.48,24.51Zm3.87-5.16a1.29,1.29,0,0,0-1.29-1.29H9.74a1.29,1.29,0,1,0,0,2.58H20.06A1.29,1.29,0,0,0,21.35,19.35Z" transform="translate(1011 949.52)"/></g></svg>