<svg xmlns="http://www.w3.org/2000/svg" width="32" height="32" viewBox="0 0 32 32"><g transform="translate(-1010 -1019)"><rect width="32" height="32" transform="translate(1010 1019)" fill="none"/><path d="M25.384,0H6.718A6.675,6.675,0,0,0,.051,6.667V25.333A6.675,6.675,0,0,0,6.718,32H25.384a6.675,6.675,0,0,0,6.667-6.667V6.667A6.675,6.675,0,0,0,25.384,0Zm1.333,14.667h2.667v2.667H26.718Zm0-2.667V9.333h2.667V12ZM5.384,17.333H2.718V14.667H5.384Zm2.6,0V14.667h16v2.667ZM5.384,12H2.718V9.333H5.384ZM2.718,20H5.384v2.667H2.718Zm24,0h2.667v2.667H26.718ZM29.384,6.667H26.718V2.912a4,4,0,0,1,2.667,3.755Zm-24-3.755V6.667H2.718A4,4,0,0,1,5.384,2.912ZM2.718,25.333H5.384v3.755a4,4,0,0,1-2.667-3.755Zm24,3.755V25.333h2.667A4,4,0,0,1,26.718,29.088Z" transform="translate(1009.949 1019)"/></g></svg>