<svg xmlns="http://www.w3.org/2000/svg" width="32" height="32" viewBox="0 0 32 32"><g transform="translate(-1010 -1089)"><rect width="32" height="32" transform="translate(1010 1089)" fill="none"/><path d="M692,1299v-24a4,4,0,1,1,8,0v24a4,4,0,0,1-8,0Zm2.666-24v24a1.334,1.334,0,0,0,2.667,0v-24a1.334,1.334,0,1,0-2.667,0ZM680,1299v-16a4,4,0,0,1,8,0v16a4,4,0,0,1-8,0Zm2.666-16v16a1.334,1.334,0,0,0,2.668,0v-16a1.334,1.334,0,0,0-2.668,0ZM668,1299v-8a4,4,0,0,1,8,0v8a4,4,0,0,1-8,0Z" transform="translate(342 -182)"/></g></svg>