<svg xmlns="http://www.w3.org/2000/svg" width="32" height="32.268" viewBox="0 0 32 32.268"><g transform="translate(-1010 -1298.732)"><rect width="32" height="32" transform="translate(1010 1299)" fill="none"/><path d="M702.219,1308.056a2,2,0,0,1-.85-3.433,17.776,17.776,0,0,0,0-25.171,2,2,0,0,1,2.831-2.829,21.767,21.767,0,0,1,0,30.828,2.013,2.013,0,0,1-1.981.606Zm-6.291-6.605a1.994,1.994,0,0,1,0-2.828,9.3,9.3,0,0,0,0-13.172,2,2,0,0,1,2.839-2.829,13.3,13.3,0,0,1,0,18.828,2.012,2.012,0,0,1-2.839,0ZM679,1292.493a6.019,6.019,0,1,1,6.019,6.018A6.019,6.019,0,0,1,679,1292.493Z" transform="translate(331 22.616)"/></g></svg>