<svg xmlns="http://www.w3.org/2000/svg" width="32" height="32" viewBox="0 0 32 32"><g transform="translate(-1010 -1369)"><rect width="32" height="32" transform="translate(1010 1369)" fill="none"/><path d="M1.767,16.479l4.749,3.469-1.8,5.586a4.306,4.306,0,0,0,6.649,4.795l4.644-3.418,4.645,3.414A4.3,4.3,0,0,0,27.3,25.533l-1.8-5.586,4.749-3.469A4.3,4.3,0,0,0,27.709,8.7H21.875l-1.77-5.518a4.3,4.3,0,0,0-8.2,0L10.136,8.7H4.307a4.3,4.3,0,0,0-2.535,7.78Z" transform="translate(1009.992 1369.81)"/></g></svg>