<svg xmlns="http://www.w3.org/2000/svg" width="32" height="32" viewBox="0 0 32 32"><g transform="translate(-1010 -1509)"><rect width="32" height="32" transform="translate(1010 1509)" fill="none"/><path d="M693.333,1303H674.667a6.685,6.685,0,0,1-6.667-6.666v-12a6.686,6.686,0,0,1,6.667-6.667h18.666a6.688,6.688,0,0,1,6.667,6.667v12A6.686,6.686,0,0,1,693.333,1303Zm-13.161-19a.994.994,0,0,0-.707.292l-3.586,3.586a3,3,0,0,0,0,4.243l3.586,3.586a1,1,0,1,0,1.413-1.414L677.585,1291H679.9a.935.935,0,0,0,.1.005l4,0,4,0a.941.941,0,0,0,.1-.005h2.315l-3.293,3.293a1,1,0,0,0,1.414,1.414l3.586-3.586a3,3,0,0,0,0-4.243l-3.586-3.586a1,1,0,1,0-1.414,1.415l3.291,3.292L684,1289l-6.413,0,3.291-3.292a1,1,0,0,0-.706-1.707Zm11.456-9H676.372l1.884-2.443a4.011,4.011,0,0,1,3.168-1.558h5.152a4.008,4.008,0,0,1,3.168,1.558l1.882,2.441Z" transform="translate(342 238)"/></g></svg>