<svg xmlns="http://www.w3.org/2000/svg" width="32" height="32" viewBox="0 0 32 32"><g transform="translate(-1010 -1649)"><rect width="32" height="32" transform="translate(1010 1649)" fill="none"/><path d="M694,1303a2.666,2.666,0,0,1-2.667-2.667V1297a2.666,2.666,0,0,1,2.667-2.667h3.333a2.658,2.658,0,0,1,1.491.455h0A2.665,2.665,0,0,1,700,1297v3.333a2.666,2.666,0,0,1-2.667,2.667Zm-11.667,0a2.667,2.667,0,0,1-2.667-2.667V1297a2.667,2.667,0,0,1,2.667-2.667h3.334a2.65,2.65,0,0,1,1.49.455h0a2.666,2.666,0,0,1,1.176,2.21v3.333a2.667,2.667,0,0,1-2.667,2.667ZM670,1303a2,2,0,0,1-2-2v-4.667a2,2,0,0,1,2-2h4.667a2,2,0,0,1,2,2V1301a2,2,0,0,1-2,2Zm24-11.667a2.666,2.666,0,0,1-2.667-2.666v-3.334a2.666,2.666,0,0,1,2.667-2.667h3.333a2.667,2.667,0,0,1,2.667,2.667v3.334a2.666,2.666,0,0,1-2.667,2.666Zm-11.667,0a2.666,2.666,0,0,1-2.667-2.666v-3.334a2.667,2.667,0,0,1,2.667-2.667h3.334a2.669,2.669,0,0,1,2.667,2.667v3.334a2.666,2.666,0,0,1-2.667,2.666Zm-12.334,0a2,2,0,0,1-2-2v-4.667a2,2,0,0,1,2-2h4.667a2,2,0,0,1,2,2v4.667a2,2,0,0,1-2,2Zm24-11.666a2.667,2.667,0,0,1-2.667-2.667v-3.334A2.667,2.667,0,0,1,694,1271h3.333a2.667,2.667,0,0,1,2.667,2.667V1277a2.667,2.667,0,0,1-2.667,2.667Zm-11.667,0a2.667,2.667,0,0,1-2.667-2.667v-3.334a2.667,2.667,0,0,1,2.667-2.667h3.334a2.669,2.669,0,0,1,2.667,2.667V1277a2.667,2.667,0,0,1-2.667,2.667Zm-12.334,0a2,2,0,0,1-2-2V1273a2,2,0,0,1,2-2h4.667a2,2,0,0,1,2,2v4.667a2,2,0,0,1-2,2Z" transform="translate(342 378)"/></g></svg>