<svg xmlns="http://www.w3.org/2000/svg" width="32" height="32" viewBox="0 0 32 32"><g transform="translate(-1010 -1719)"><rect width="32" height="32" transform="translate(1010 1719)" fill="none"/><path d="M28.6,5.333H24.26A6.938,6.938,0,0,0,17.4,0H14.6A6.938,6.938,0,0,0,7.74,5.333H3.4A1.368,1.368,0,0,0,2,6.667,1.368,1.368,0,0,0,3.4,8H4.8V25.333A6.848,6.848,0,0,0,11.8,32h8.4a6.848,6.848,0,0,0,7-6.667V8h1.4A1.368,1.368,0,0,0,30,6.667,1.368,1.368,0,0,0,28.6,5.333Zm-14,17.333a1.4,1.4,0,0,1-2.8,0v-8a1.4,1.4,0,0,1,2.8,0Zm5.6,0a1.4,1.4,0,0,1-2.8,0v-8a1.4,1.4,0,0,1,2.8,0ZM10.639,5.333A4.2,4.2,0,0,1,14.6,2.667h2.8a4.2,4.2,0,0,1,3.961,2.667Z" transform="translate(1010 1719)"/></g></svg>