<svg xmlns="http://www.w3.org/2000/svg" width="32" height="32" viewBox="0 0 32 32"><g transform="translate(-1010 -1789)"><rect width="32" height="32" transform="translate(1010 1789)" fill="none"/><path d="M669.333,1303a1.334,1.334,0,0,1-1.333-1.333,12,12,0,0,1,24,0,1.333,1.333,0,0,1-1.333,1.333Zm24-12v-2.666h-2.666a1.334,1.334,0,0,1,0-2.667h2.666V1283a1.334,1.334,0,0,1,2.668,0v2.666h2.666a1.334,1.334,0,0,1,0,2.667H696V1291a1.334,1.334,0,0,1-2.668,0ZM672,1279a8,8,0,1,1,8,8A8,8,0,0,1,672,1279Z" transform="translate(342 518)"/></g></svg>