<svg xmlns="http://www.w3.org/2000/svg" width="32.013" height="32" viewBox="0 0 32.013 32">
  <g id="Group_158" data-name="Group 158" transform="translate(-1009.994 -1929)">
    <g id="Group_123" data-name="Group 123">
      <rect id="Rectangle_126" data-name="Rectangle 126" width="32" height="32" transform="translate(1010 1929)" fill="none"/>
      <path id="Union_24" data-name="Union 24" d="M670.061,1299.638a1.5,1.5,0,0,1,0-2.121l2.915-2.915a22.134,22.134,0,0,1-4-5.011,7.046,7.046,0,0,1,0-7.181c2.068-3.514,6.769-9.41,15.023-9.41a15.582,15.582,0,0,1,8.271,2.307l3.245-3.245a1.5,1.5,0,1,1,2.121,2.121l-25.456,25.456a1.5,1.5,0,0,1-2.121,0ZM676,1286a8.586,8.586,0,0,0,1.189,4.387l2.934-2.934a4,4,0,0,1,4.871-4.871l3.488-3.488a7.779,7.779,0,0,0-4.485-1.44A8.188,8.188,0,0,0,676,1286Zm1.981,11.838,3.812-3.812a7.7,7.7,0,0,0,2.2.321,8.2,8.2,0,0,0,8-8.347,8.713,8.713,0,0,0-.221-1.955l4.914-4.914a22.94,22.94,0,0,1,2.332,3.279,7.038,7.038,0,0,1,0,7.181c-2.066,3.515-6.766,9.41-15.022,9.41A15.758,15.758,0,0,1,677.984,1297.837Zm7.8-7.8,1.794-1.793a4.034,4.034,0,0,1-1.792,1.795Z" transform="translate(342 659)"/>
    </g>
  </g>
</svg>
