<svg xmlns="http://www.w3.org/2000/svg" width="32" height="32" viewBox="0 0 32 32"><g transform="translate(-1010 -1929)"><rect width="32" height="32" transform="translate(1010 1929)" fill="none"/><path d="M670.061,1299.638a1.5,1.5,0,0,1,0-2.121l2.915-2.915a22.136,22.136,0,0,1-4-5.011,7.085,7.085,0,0,1,0-7.182c2.067-3.513,6.77-9.409,15.023-9.409a15.594,15.594,0,0,1,8.27,2.307l3.247-3.247a1.5,1.5,0,1,1,2.121,2.121l-2.93,2.93a21.932,21.932,0,0,1,4.315,5.3,7.081,7.081,0,0,1,0,7.182C696.956,1293.1,692.253,1299,684,1299a15.6,15.6,0,0,1-8.64-2.54l-3.178,3.178a1.5,1.5,0,0,1-2.121,0ZM684,1294.347a8.185,8.185,0,0,0,8-8.347,8.562,8.562,0,0,0-1.423-4.753l-3.146,3.146a4,4,0,0,1-5.49,5.49l-2.769,2.769A7.748,7.748,0,0,0,684,1294.347ZM676,1286a8.58,8.58,0,0,0,1.191,4.385l2.932-2.932A4,4,0,0,1,685,1282.58l3.49-3.49a7.728,7.728,0,0,0-4.487-1.437A8.178,8.178,0,0,0,676,1286Z" transform="translate(342 659)"/></g></svg>