<svg xmlns="http://www.w3.org/2000/svg" width="32" height="32" viewBox="0 0 32 32"><g transform="translate(-1010 -1859)"><rect width="32" height="32" transform="translate(1010 1859)" fill="none"/><path d="M668.977,1290.59a7.082,7.082,0,0,1,0-7.18c2.067-3.515,6.77-9.409,15.023-9.409s12.955,5.895,15.022,9.409a7.078,7.078,0,0,1,0,7.18c-2.067,3.515-6.769,9.41-15.022,9.41S671.044,1294.1,668.977,1290.59ZM676,1287a8,8,0,1,0,8-8.347A8.178,8.178,0,0,0,676,1287Zm4,0a4,4,0,1,1,4,4.175A4.09,4.09,0,0,1,680,1287Z" transform="translate(342 588)"/></g></svg>