<svg xmlns="http://www.w3.org/2000/svg" width="32" height="32" viewBox="0 0 32 32"><g transform="translate(-1010 -1999)"><rect width="32" height="32" transform="translate(1010 1999)" fill="none"/><path d="M686.435,1302.373A16.085,16.085,0,0,1,676.363,1296h-1.692a6.667,6.667,0,0,1-6.671-6.647v-5.316a6.666,6.666,0,0,1,6.671-6.646h1.691a16.092,16.092,0,0,1,10.073-6.372,1.334,1.334,0,0,1,1.576,1.307v28.738a1.336,1.336,0,0,1-1.576,1.307Zm8-5.029a1.328,1.328,0,0,1-.565-2.281,11.814,11.814,0,0,0,0-16.729,1.332,1.332,0,0,1,1.882-1.88,14.468,14.468,0,0,1,0,20.489,1.336,1.336,0,0,1-1.316.4Zm-4.181-4.39a1.325,1.325,0,0,1,0-1.879,6.185,6.185,0,0,0,0-8.754,1.331,1.331,0,1,1,1.886-1.879,8.836,8.836,0,0,1,0,12.513,1.336,1.336,0,0,1-1.886,0Z" transform="translate(342 728)"/></g></svg>