<svg xmlns="http://www.w3.org/2000/svg" width="32.077" height="32" viewBox="0 0 32.077 32"><g transform="translate(-1010 -2069)"><rect width="32" height="32" transform="translate(1010 2069)" fill="none"/><path d="M686.43,1302.495a16.083,16.083,0,0,1-10.075-6.4h-1.687a6.678,6.678,0,0,1-6.668-6.667v-5.335a6.679,6.679,0,0,1,6.668-6.667h1.688a16.079,16.079,0,0,1,10.075-6.4,1.334,1.334,0,0,1,1.575,1.315v28.847a1.334,1.334,0,0,1-1.333,1.333A1.244,1.244,0,0,1,686.43,1302.495Zm-15.763-18.4v5.335a4,4,0,0,0,4,4h2.39a1.336,1.336,0,0,1,1.116.607,13.447,13.447,0,0,0,7.163,5.44v-25.431a13.439,13.439,0,0,0-7.152,5.444,1.334,1.334,0,0,1-1.116.6h-2.4A4,4,0,0,0,670.667,1284.091Zm23.194,12.949a1.334,1.334,0,0,1,0-1.887,11.887,11.887,0,0,0,0-16.79,1.334,1.334,0,0,1,1.887-1.887,14.556,14.556,0,0,1,0,20.563,1.334,1.334,0,0,1-1.887,0Zm-3.614-4a1.337,1.337,0,0,1,0-1.89,6.217,6.217,0,0,0,0-8.785,1.337,1.337,0,1,1,1.893-1.888,8.889,8.889,0,0,1,0,12.56,1.337,1.337,0,0,1-1.89,0Z" transform="translate(342.077 798.483)"/></g></svg>