<svg xmlns="http://www.w3.org/2000/svg" width="32.15" height="32" viewBox="0 0 32.15 32"><g transform="translate(-1009.85 -2139)"><rect width="32" height="32" transform="translate(1010 2139)" fill="none"/><path d="M685.284,1301.524a16.084,16.084,0,0,1-9.879-6.109l-4.223,4.223a1.5,1.5,0,0,1-2.121-2.121l2.62-2.62a6.662,6.662,0,0,1-4.832-6.389v-5.316a6.666,6.666,0,0,1,6.67-6.647h1.692a16.086,16.086,0,0,1,10.073-6.37,1.33,1.33,0,0,1,1.575,1.307v8.237l7.657-7.657a1.5,1.5,0,1,1,2.121,2.121l-1.737,1.737a14.463,14.463,0,0,1-.3,20.174,1.336,1.336,0,0,1-.995.443,1.353,1.353,0,0,1-.321-.04,1.327,1.327,0,0,1-.564-2.282,11.815,11.815,0,0,0,.3-16.414l-1.915,1.915a8.837,8.837,0,0,1-.12,12.391,1.332,1.332,0,0,1-1.887-1.879,6.182,6.182,0,0,0,.123-8.628l-2.362,2.362v16.257a1.327,1.327,0,0,1-1.333,1.328A1.38,1.38,0,0,1,685.284,1301.524Z" transform="translate(343 869)"/></g></svg>