<svg xmlns="http://www.w3.org/2000/svg" width="32.15" height="32" viewBox="0 0 32.15 32">
  <g id="Group_126" data-name="Group 126" transform="translate(-1009.85 -2139)">
    <rect id="Rectangle_129" data-name="Rectangle 129" width="32" height="32" transform="translate(1010 2139)" fill="none"/>
    <path id="Union_28" data-name="Union 28" d="M685.284,1301.524a16.072,16.072,0,0,1-7.979-4.01l9.555-9.555v12.259a1.332,1.332,0,0,1-.481,1.021,1.348,1.348,0,0,1-.853.307A1.279,1.279,0,0,1,685.284,1301.524Zm-16.223-1.886a1.5,1.5,0,0,1,0-2.121l2.621-2.621a6.674,6.674,0,0,1-4.833-6.388v-5.316a6.678,6.678,0,0,1,6.67-6.647h1.692a16.017,16.017,0,0,1,10.073-6.37,1.293,1.293,0,0,1,.243-.023,1.332,1.332,0,0,1,1.333,1.329v8.236l7.656-7.656a1.5,1.5,0,1,1,2.121,2.121l-25.456,25.456a1.5,1.5,0,0,1-2.121,0Zm24.22-3.141a1.328,1.328,0,0,1-.564-2.283,11.867,11.867,0,0,0,1.988-14.1l1.941-1.942a14.456,14.456,0,0,1-2.049,17.921,1.339,1.339,0,0,1-.995.442A1.373,1.373,0,0,1,693.281,1296.5Zm-4.182-4.391a1.325,1.325,0,0,1,0-1.879,6.2,6.2,0,0,0,1.578-6.083l2.064-2.064a8.842,8.842,0,0,1-1.753,10.026,1.338,1.338,0,0,1-1.888,0Z" transform="translate(343 869)"/>
  </g>
</svg>
