<svg xmlns="http://www.w3.org/2000/svg" width="32" height="32" viewBox="0 0 32 32"><g transform="translate(-1010 -2209)"><rect width="32" height="32" transform="translate(1010 2209)" fill="none"/><path d="M698.313,1302.934H674.375a4,4,0,0,1-3.463-6l11.969-20.7a4,4,0,0,1,6.925,0l11.969,20.7a4,4,0,0,1-3.462,6Zm-12.229-8.787a2.1,2.1,0,0,0-2.1,2.1,2.114,2.114,0,0,0,.615,1.512,2.056,2.056,0,0,0,2.977,0,2.114,2.114,0,0,0,.614-1.512,2.1,2.1,0,0,0-2.1-2.1Zm-.012-14.011c-1.246,0-1.878.938-1.878,2.787v7.112c0,1.85.632,2.788,1.878,2.788s1.878-.938,1.878-2.788v-7.112C687.95,1281.073,687.318,1280.136,686.072,1280.136Z" transform="translate(339.681 936.418)"/></g></svg>