<svg xmlns="http://www.w3.org/2000/svg" width="32" height="32" viewBox="0 0 32 32"><g transform="translate(-1010 -2349)"><rect width="32" height="32" transform="translate(1010 2349)" fill="none"/><g transform="translate(0 0.562)"><path d="M23.274,8.836A14.375,14.375,0,0,0,18.6,5.524a13.635,13.635,0,0,0-11.022,0A14.375,14.375,0,0,0,2.909,8.836l2.909,3.087A10.268,10.268,0,0,1,9.155,9.556a9.739,9.739,0,0,1,7.873,0,10.27,10.27,0,0,1,3.337,2.367Z" transform="translate(1012.909 2360.799)"/><path d="M32,7.022A22.009,22.009,0,0,0,16,0,22.009,22.009,0,0,0,0,7.022l2.909,3.087A18.006,18.006,0,0,1,16,4.362a18.006,18.006,0,0,1,13.091,5.746Z" transform="translate(1010 2356.438)" opacity="0.4"/></g><path d="M5.943,9.817,8,12l2.057-2.183a2.9,2.9,0,0,0-.944-.669,2.754,2.754,0,0,0-2.227,0A2.9,2.9,0,0,0,5.943,9.817Z" transform="translate(1019 2360)" fill="none"/></g></svg>