<svg xmlns="http://www.w3.org/2000/svg" width="32" height="32" viewBox="0 0 32 32"><g transform="translate(-1010 -2279)"><rect width="32" height="32" transform="translate(1010 2279)" fill="none"/><path d="M687.936,1284.917a9.734,9.734,0,0,0-7.873,0,10.268,10.268,0,0,0-3.337,2.367l-2.909-3.087a14.369,14.369,0,0,1,4.673-3.314,13.639,13.639,0,0,1,11.021,0,14.38,14.38,0,0,1,4.671,3.314l-2.909,3.087A10.269,10.269,0,0,0,687.936,1284.917ZM684,1275.363a18.007,18.007,0,0,0-13.091,5.745L668,1278.022a21.74,21.74,0,0,1,32,0l-2.909,3.087A18.007,18.007,0,0,0,684,1275.363Z" transform="translate(342 1016)" opacity="0.4"/></g></svg>